<svg xmlns="http://www.w3.org/2000/svg" xmlns:xlink="http://www.w3.org/1999/xlink" width="460px" height="170px" viewBox="0 0 460 170" version="1.1"><defs><linearGradient x1="1617.64404%" y1="273.174825%" x2="1747.85296%" y2="273.174825%" id="a"><stop stop-color="#FFFFFF" offset="11%"/><stop stop-color="#DBDDDF" offset="24%"/><stop stop-color="#A6ADB0" offset="44%"/><stop stop-color="#929A9E" offset="54%"/></linearGradient><linearGradient x1="49.870801%" y1="100%" x2="49.870801%" y2="0.281293952%" id="b"><stop stop-color="#FFFFFF" offset="0%"/><stop stop-color="#FFFFFF" offset="35%"/><stop stop-color="#929A9E" offset="56%"/><stop stop-color="#929A9E" offset="100%"/></linearGradient><linearGradient x1="0%" y1="49.9283668%" x2="100%" y2="49.9283668%" id="c"><stop stop-color="#FFFFFF" offset="15%"/><stop stop-color="#FAFAFA" offset="21%"/><stop stop-color="#EBECED" offset="28%"/><stop stop-color="#D2D5D7" offset="37%"/><stop stop-color="#AFB5B8" offset="45%"/><stop stop-color="#929A9E" offset="51%"/></linearGradient><linearGradient x1="83.2016389%" y1="89.7170838%" x2="16.9154229%" y2="1.71381937%" id="d"><stop stop-color="#929A9E" offset="0%"/><stop stop-color="#979FA2" offset="1%"/><stop stop-color="#C0C4C6" offset="12%"/><stop stop-color="#D9DBDC" offset="20%"/><stop stop-color="#E2E3E4" offset="25%"/><stop stop-color="#E2E3E4" offset="75%"/><stop stop-color="#DADCDD" offset="80%"/><stop stop-color="#C4C8CA" offset="88%"/><stop stop-color="#A1A8AB" offset="97%"/><stop stop-color="#929A9E" offset="100%"/></linearGradient><linearGradient x1="-0.16%" y1="49.6183206%" x2="100%" y2="49.6183206%" id="e"><stop stop-color="#FFFFFF" offset="25%"/><stop stop-color="#FAFAFA" offset="34%"/><stop stop-color="#EBECED" offset="45%"/><stop stop-color="#D2D5D7" offset="57%"/><stop stop-color="#AFB5B8" offset="70%"/><stop stop-color="#929A9E" offset="79%"/></linearGradient><linearGradient x1="-0.0503009613%" y1="50.0645161%" x2="99.9480101%" y2="50.0645161%" id="f"><stop stop-color="#FFFFFF" offset="20%"/><stop stop-color="#FAFBFB" offset="33%"/><stop stop-color="#EDEEEF" offset="47%"/><stop stop-color="#D7DADB" offset="62%"/><stop stop-color="#B8BDC0" offset="78%"/><stop stop-color="#929A9E" offset="93%"/></linearGradient><linearGradient x1="58160%" y1="28854%" x2="59413%" y2="28854%" id="g"><stop stop-color="#FFFFFF" offset="25%"/><stop stop-color="#FAFAFA" offset="34%"/><stop stop-color="#EBECED" offset="45%"/><stop stop-color="#D2D5D7" offset="57%"/><stop stop-color="#AFB5B8" offset="70%"/><stop stop-color="#929A9E" offset="79%"/></linearGradient><linearGradient x1="0%" y1="50%" x2="100%" y2="50%" id="h"><stop stop-color="#FFFFFF" offset="39%"/><stop stop-color="#FAFAFA" offset="47%"/><stop stop-color="#EBECED" offset="56%"/><stop stop-color="#D2D5D7" offset="67%"/><stop stop-color="#AFB5B8" offset="79%"/><stop stop-color="#929A9E" offset="87%"/></linearGradient></defs><g stroke="none" stroke-width="1" fill="none" fill-rule="evenodd"><g><path d="M237.87,43.87 C248.56,43.87 255.75,52.13 255.75,64.44 L255.75,87.29 C255.75,87.615848 255.485848,87.88 255.16,87.88 L244.68,87.88 C244.354152,87.88 244.09,87.615848 244.09,87.29 L244.09,64.51 C244.09,59.73 241.77,54.63 235.26,54.63 L235.04,54.63 C229.910272,54.880116 225.875194,59.1042006 225.86,64.24 L225.86,87.24 C225.86,87.565848 225.595848,87.83 225.27,87.83 L214.88,87.83 C214.554152,87.83 214.29,87.565848 214.29,87.24 L214.29,45.03 C214.29,44.8735223 214.352161,44.7234535 214.462807,44.612807 C214.573453,44.5021605 214.723522,44.44 214.88,44.44 L224.88,44.44 C225.036478,44.44 225.186547,44.5021605 225.297193,44.612807 C225.407839,44.7234535 225.47,44.8735223 225.47,45.03 L225.47,48.8 C229.39,45.41 233.26,43.88 237.81,43.88 L237.87,43.87 Z M397.34,80.22 C397.16445,80.4590885 397.189949,80.7905731 397.4,81 C403.59,87.21 410.4,88.06 416.23,88.06 C424.48,88.06 430.67,84.91 433.23,79.42 C434.004926,77.7222948 434.400767,75.8761717 434.39,74.01 C434.39,62.87 424.78,60.83 416.39,60.29 C409.71,59.87 409.71,57.52 409.71,56.75 C409.71,53.93 414.23,53.62 416.18,53.62 C419.94,53.62 422.72,54.53 425.07,56.57 C425.187431,56.6760445 425.342534,56.7304778 425.500481,56.7210762 C425.658427,56.7116746 425.805978,56.6392262 425.91,56.52 L431.83,49.64 C432.040394,49.3879995 432.009203,49.0137008 431.76,48.8 C427.43,45.17 422.82,43.69 416.01,43.69 C411.936544,43.6307068 407.917912,44.6336418 404.35,46.6 C400.525129,48.6802133 398.165623,52.706384 398.22,57.06 C398.22,64.8 404.4,69.53 415.64,70.38 C421.99,70.74 422.81,72.59 422.81,74.16 C422.81,76.48 419.74,77.7 416.71,77.7 L416.44,77.7 C411.738363,77.685589 407.204029,75.953651 403.69,72.83 C403.568106,72.7095218 403.399848,72.6480012 403.22899,72.6614395 C403.058131,72.6748778 402.90156,72.7619467 402.8,72.9 L397.34,80.22 Z M292.22,73.12 C293.968563,70.9021309 294.86597,68.1318729 294.75,65.31 C294.75,59.86 291.42,54.18 283.43,54.18 C276.84,54.18 272.43,58.71 272.43,65.45 C272.43,72.19 276.86,76.8 283.43,76.8 C286.744679,76.8512304 289.930487,75.5174681 292.22,73.12 L292.22,73.12 Z M294.47,44.99 C294.47,44.664152 294.734152,44.4 295.06,44.4 L305.42,44.4 C305.745848,44.4 306.01,44.664152 306.01,44.99 L306.01,87.32 C306.01,87.645848 305.745848,87.91 305.42,87.91 L295.04,87.91 C294.714152,87.91 294.45,87.645848 294.45,87.32 L294.45,84.12 C290.81,87.49 286.55,87.56 282.73,87.63 L282.08,87.63 C275.86,87.63 270.58,85.63 266.81,81.97 C262.81,78.06 260.73,72.35 260.73,65.44 C260.73,52.15 269.2,43.57 282.32,43.57 L282.52,43.57 C286.66,43.57 290.93,43.99 294.44,46.77 L294.44,44.98 L294.47,44.99 Z M165.52,33.86 L165.52,23.68 C165.52,23.2713093 165.188691,22.94 164.78,22.94 L127.07,22.94 C126.87374,22.94 126.685518,23.0179641 126.546741,23.156741 C126.407964,23.2955179 126.33,23.4837398 126.33,23.68 L126.33,87.12 C126.33,87.5286907 126.661309,87.86 127.07,87.86 L137.22,87.86 C137.628691,87.86 137.96,87.5286907 137.96,87.12 L137.96,61.23 C137.96,60.8213093 138.291309,60.49 138.7,60.49 L157.7,60.49 C157.89626,60.49 158.084482,60.4120359 158.223259,60.273259 C158.362036,60.1344821 158.44,59.9462602 158.44,59.75 L158.44,49.57 C158.44,49.1613093 158.108691,48.83 157.7,48.83 L138.7,48.83 C138.291309,48.83 137.96,48.4986907 137.96,48.09 L137.96,35.34 C137.96,34.9313093 138.291309,34.6 138.7,34.6 L164.76,34.6 C165.168691,34.6 165.5,34.2686907 165.5,33.86 L165.52,33.86 Z M387.36,74.29 C387.130735,74.0802542 386.779265,74.0802542 386.55,74.29 C384.542026,75.9434855 382.030899,76.8639971 379.43,76.9 C373.08,76.9 368.64,72.33 368.64,65.78 C368.64,59.23 373.08,54.66 379.43,54.66 C382.030899,54.6960029 384.542026,55.6165145 386.55,57.27 C386.779265,57.4797458 387.130735,57.4797458 387.36,57.27 L394.07,50.19 C394.182973,50.0774189 394.246473,49.9244909 394.246473,49.765 C394.246473,49.6055091 394.182973,49.4525811 394.07,49.34 C390.163365,45.4273529 384.805644,43.3154181 379.28,43.51 C365.68,43.51 356.9,52.26 356.9,65.81 C356.9,79.36 365.69,88.11 379.28,88.11 C384.805435,88.3033652 390.162688,86.191615 394.07,82.28 C394.182973,82.1674189 394.246473,82.0144909 394.246473,81.855 C394.246473,81.6955091 394.182973,81.5425811 394.07,81.43 L387.36,74.29 Z M333.22,87.87 C333.376478,87.87 333.526547,87.8078395 333.637193,87.697193 C333.747839,87.5865465 333.81,87.4364777 333.81,87.28 L333.81,77.8 C333.81,77.6435223 333.747839,77.4934535 333.637193,77.382807 C333.526547,77.2721605 333.376478,77.21 333.22,77.21 C332.16,77.21 328.78,77.21 328.07,77.21 C325.07,77.08 323.68,75.59 323.68,72.37 L323.68,56.12 L333.22,56.12 C333.376478,56.12 333.526547,56.0578395 333.637193,55.947193 C333.747839,55.8365465 333.81,55.6864777 333.81,55.53 L333.81,45.04 C333.81,44.8835223 333.747839,44.7334535 333.637193,44.622807 C333.526547,44.5121605 333.376478,44.45 333.22,44.45 L323.77,44.45 L323.77,35.24 C323.77,35.0835223 323.707839,34.9334535 323.597193,34.822807 C323.486547,34.7121605 323.336478,34.65 323.18,34.65 L312.7,34.65 C312.543522,34.65 312.393453,34.7121605 312.282807,34.822807 C312.172161,34.9334535 312.11,35.0835223 312.11,35.24 L312.11,72.33 C312.11,82.2 317.67,87.86 327.41,87.86 L333.22,87.86 L333.22,87.87 Z M194.22,73.12 C195.968563,70.9021309 196.86597,68.1318729 196.75,65.31 C196.75,59.86 193.42,54.18 185.43,54.18 C178.84,54.18 174.43,58.71 174.43,65.45 C174.43,72.19 178.86,76.8 185.43,76.8 C188.744679,76.8512304 191.930487,75.5174681 194.22,73.12 L194.22,73.12 Z M196.47,44.99 C196.47,44.664152 196.734152,44.4 197.06,44.4 L207.44,44.4 C207.765848,44.4 208.03,44.664152 208.03,44.99 L208.03,87.32 C208.03,87.645848 207.765848,87.91 207.44,87.91 L197.09,87.91 C196.764152,87.91 196.5,87.645848 196.5,87.32 L196.5,84.12 C192.86,87.49 188.6,87.56 184.78,87.63 L184.13,87.63 C177.91,87.63 172.63,85.63 168.86,81.97 C164.86,78.06 162.78,72.35 162.78,65.44 C162.78,52.15 171.25,43.57 184.37,43.57 L184.57,43.57 C188.71,43.57 192.98,43.99 196.49,46.77 L196.49,44.98 L196.47,44.99 Z M340.11,87.92 L350.62,87.92 C350.945848,87.92 351.21,87.655848 351.21,87.33 L351.21,44.95 C351.21,44.624152 350.945848,44.36 350.62,44.36 L340.15,44.36 C339.824152,44.36 339.56,44.624152 339.56,44.95 L339.56,87.28 C339.56,87.605848 339.824152,87.87 340.15,87.87 L340.11,87.92 Z M351.94,31.49 C351.94,22.97 339.02,22.97 339.02,31.49 C339.02,40.01 351.94,40.01 351.94,31.49 L351.94,31.49 Z" fill="#09203F" fill-rule="nonzero"/><path d="M108.71,10.72 L97.85,27.59 C97.6380489,27.9244416 97.219376,28.0626036 96.85,27.92 C71.78,15.31 42.85,38.5 17.31,32.97 C17.0724606,32.9223878 16.8637119,32.7820223 16.73,32.58 L0.22,7.25 C-0.0217905434,6.86720574 -0.01413298,6.37760459 0.239510489,6.00255912 C0.493153957,5.62751365 0.944703202,5.4381167 1.39,5.52 C7.74387113,6.99680242 14.1876711,8.05573689 20.68,8.69 C59.42,10.78 80.4,-12.46 108.49,9.56 C108.854636,9.830118 108.950414,10.3351312 108.71,10.72 L108.71,10.72 Z M1.17,5.52 L0,7.25 L1.17,5.52 L1.17,5.52 Z M77.04,59.12 C77.2403059,59.2155155 77.4803899,59.1469201 77.6,58.96 L90.81,38.54 C90.8842259,38.4185522 90.8966188,38.2691479 90.8434177,38.1371302 C90.7902165,38.0051125 90.677694,37.9060472 90.54,37.87 C71.54,31.31 53.72,43.87 26.54,44.6 C26.1398736,44.6178333 25.7784576,44.844338 25.587959,45.1966581 C25.3974604,45.5489781 25.4058276,45.9754238 25.61,46.32 L54.93,91.57 C55.1028878,91.8484093 55.4457946,91.9696023 55.7552301,91.8616597 C56.0646656,91.753717 56.2577909,91.4455362 56.22,91.12 L49.91,62.47 C49.8636983,62.2184455 50.0147123,61.9725084 50.26,61.9 C52.54,61.06 69.14,55.43 77,59.07 L77,59.07 L77.04,59.12 Z" fill="#E53D2E" fill-rule="nonzero"/><path d="M166.56,118.12 C163.919497,120.078914 160.545393,120.763992 157.35,119.99 C153.084782,118.981442 149.5777,115.959382 147.95,111.89 C146.3223,115.959382 142.815218,118.981442 138.55,119.99 C135.354607,120.763992 131.980503,120.078914 129.34,118.12 L128.02,118.12 L128.02,152.12 C128.044648,153.676276 128.610361,155.175418 129.62,156.36 C131.34,158.45 134.26,159.8 138.29,160.36 C140.976015,160.59578 143.517965,161.677685 145.55,163.45 C146.473763,164.432586 147.279252,165.519995 147.95,166.69 C148.626554,165.523802 149.43157,164.43703 150.35,163.45 C152.382035,161.677685 154.923985,160.59578 157.61,160.36 C161.61,159.78 164.56,158.42 166.28,156.36 C167.28891,155.174988 167.854521,153.676118 167.88,152.12 L167.88,118.12 L166.56,118.12 L166.56,118.12 Z" fill="#FFFFFF" fill-rule="nonzero"/><path d="M166.68,119.48 C163.866953,121.403571 160.361935,122.022961 157.06,121.18 C153.266928,120.308689 149.983812,117.948161 147.95,114.63 C145.916188,117.948161 142.633072,120.308689 138.84,121.18 C135.538065,122.022961 132.033047,121.403571 129.22,119.48 L129.22,152.12 C129.22,153.23 129.68,157.94 138.47,159.21 C141.40525,159.476316 144.179358,160.670723 146.39,162.62 C146.985369,163.19019 147.512256,163.827825 147.96,164.52 C148.408254,163.828199 148.935095,163.190621 149.53,162.62 C151.741018,160.671317 154.514923,159.476997 157.45,159.21 C166.23,157.94 166.7,153.21 166.7,152.12 L166.7,119.48 L166.68,119.48 Z" fill="#003B75" fill-rule="nonzero"/><path d="M147.95,161.17 C147.95,161.17 150.5,158.03 157.12,157.01 C164.71,155.84 164.48,152.28 164.48,152.1 L164.48,135.01 L131.41,135.01 L131.41,152.12 C131.41,152.3 131.19,155.86 138.77,157.03 C145.4,158.03 147.95,161.17 147.95,161.17 Z" fill="#FFFFFF" fill-rule="nonzero"/><path fill="#DA2128" fill-rule="nonzero" d="M140.22 147.5L140.22 139.37 139.22 138.8 139.22 136.69 143.86 136.69 143.86 138.8 142.86 139.37 142.86 155.94 140.38 155.2 136.82 144.62 136.82 151.62 137.96 152.5 137.96 154.65 132.96 153.38 132.96 151.52 134.1 151.07 134.1 139.37 132.93 138.79 132.93 136.68 136.7 136.68M148.79 154.93L149.79 156.12 149.79 158.23 144.86 156.39 144.86 154.6 145.95 154.15 145.95 139.37 144.87 138.82 144.87 136.69 153.44 136.69 153.44 140.98 151.56 140.98 150.99 139.22 148.81 139.22 148.81 144.22 150.45 144.22 151.09 143.28 152.4 143.28 152.4 147.69 151.09 147.69 150.47 146.8 148.81 146.8 148.81 154.97M154.22 155.68L154.22 153.57 155.45 152.57 155.45 139.37 154.45 138.82 154.45 136.69 159.39 136.69 159.39 138.82 158.39 139.37 158.39 151.74 160.51 151.17 160.92 147.93 162.92 147.93 162.92 153.35"/><path fill="#FFFFFF" fill-rule="nonzero" d="M132.27 131.52L130.77 130.39 132.6 130.39 133.2 128.66 133.8 130.39 135.63 130.39 134.13 131.52 134.68 133.28 133.19 132.28 131.7 133.28M138.76 131.52L137.26 130.39 139.09 130.39 139.69 128.66 140.29 130.39 142.12 130.39 140.62 131.52 141.17 133.28 139.68 132.28 138.19 133.28M132.27 125.66L130.77 124.53 132.6 124.53 133.2 122.8 133.8 124.53 135.63 124.53 134.13 125.66 134.68 127.42 133.19 126.42 131.7 127.42M138.76 125.66L137.26 124.53 139.09 124.53 139.69 122.8 140.29 124.53 142.12 124.53 140.62 125.66 141.22 127.42 139.73 126.42 138.24 127.42M164.22 133.27L162.73 132.27 161.24 133.27 161.79 131.51 160.29 130.38 162.12 130.38 162.72 128.65 163.32 130.38 165.15 130.38 163.65 131.51M157.68 133.27L156.19 132.27 154.7 133.27 155.22 131.52 153.72 130.39 155.55 130.39 156.15 128.66 156.75 130.39 158.58 130.39 157.08 131.52M164.22 127.42L162.73 126.42 161.24 127.42 161.79 125.66 160.29 124.53 162.12 124.53 162.72 122.8 163.32 124.53 165.15 124.53 163.65 125.66M157.68 127.42L156.19 126.42 154.7 127.42 155.25 125.66 153.75 124.53 155.58 124.53 156.18 122.8 156.78 124.53 158.61 124.53 157.11 125.66M152.07 120.96C151.386809 121.364263 150.761184 121.858708 150.21 122.43 150.448413 122.565208 150.675786 122.719019 150.89 122.89L150.4 123.34C149.816248 122.861691 149.132898 122.520016 148.4 122.34L148.99 121.94C149.193803 121.994663 149.39416 122.061449 149.59 122.14 150.288869 121.599314 151.055348 121.152201 151.87 120.81 151.725735 120.759212 151.572532 120.738784 151.42 120.75 146.62 120.81 142.2 124.4 143.03 130.53 143.124153 131.343344 143.34693 132.136564 143.69 132.88 143.924753 130.905005 144.47509 128.980512 145.32 127.18 145.085325 127.095467 144.844653 127.028614 144.6 126.98 144.72 126.74 144.88 126.43 144.88 126.43 145.693876 126.576117 146.459541 126.919464 147.11 127.43L146.78 127.97C146.556606 127.794151 146.31914 127.636956 146.07 127.5 145.100824 129.202232 144.389739 131.038921 143.96 132.95 144.02088 133.029281 144.123134 133.064677 144.22 133.04 149.48 132.36 151.94 129.68 152.69 126.77 153.164167 124.937819 153.048695 123.002787 152.36 121.24 152.327125 121.097578 152.213487 120.987859 152.07 120.96zM147.55 126.75C146.8966 126.206157 146.115325 125.837891 145.28 125.68 145.28 125.68 145.52 125.29 145.66 125.08 146.500508 125.248809 147.284762 125.627178 147.94 126.18L147.55 126.75zM148.41 125.54C147.754525 124.987543 146.970369 124.609222 146.13 124.44 146.26 124.27 146.42 124.08 146.57 123.91 147.405474 124.079096 148.185643 124.453715 148.84 125 148.68 125.18 148.54 125.37 148.41 125.54L148.41 125.54zM149.41 124.38C148.773902 123.850801 148.019022 123.483654 147.21 123.31 147.4 123.13 147.6 122.97 147.77 122.83 148.546829 123.012697 149.269688 123.37584 149.88 123.89L149.41 124.38z"/><path d="M113.72,110.12 L113.72,169.12" stroke="#09203F"/><rect fill="#FFFFFF" fill-rule="nonzero" x="182.75" y="124.3" width="61" height="32.78" rx="4.98"/><path d="M241.12,126.94 C240.502629,126.304775 239.655798,125.944421 238.77,125.94 L224.5,125.94 L232.71,139.64 L233.46,139.73 L233.9,140.35 L233.9,140.94 L234.43,141.04 L234.9,141.7 L234.9,142.26 L235.43,142.35 C235.43,142.35 235.96,142.91 235.96,142.94 C235.96,142.97 235.96,144.22 235.96,144.22 C236.612473,144.816643 237.35067,145.312145 238.15,145.69 C238.87,145.97 238.96,147.13 239.37,147.75 C239.93,148.63 240.68,149 240.53,149.5 C240.16,150.85 238.78,153.1 237.53,153.22 L232.47,153.22 L232.47,155.38 L238.8,155.38 C240.633585,155.38 242.12,153.893585 242.12,152.06 L242.12,129.28 C242.112905,128.397677 241.752762,127.554943 241.12,126.94 L241.12,126.94 Z" fill="#CA2027" fill-rule="nonzero"/><path d="M219.64,125.96 L187.73,125.96 C185.896415,125.96 184.41,127.446415 184.41,129.28 L184.41,152.12 C184.41,153.953585 185.896415,155.44 187.73,155.44 L208.46,155.44 L207.22,153.27 L204.75,153.27 C204.75,147.14 206.84,143.73 209.31,143.08 C209.65,143.02 209.5,141.33 209.06,140.83 C208.580443,140.859167 208.099557,140.859167 207.62,140.83 C207.31,140.74 207.53,140.42 207.53,140.42 L208.69,137.92 L208.53,137.23 L204.22,137.23 C204.16,137.23 207.75,134.76 207.75,134.76 C207.93,128.26 214.59,127.76 218.63,130.44 C221.01,132.03 221.2,135.16 221.01,137.35 C220.804578,137.412011 220.585422,137.412011 220.38,137.35 C220.38,137.35 219.98,139.73 221.04,139.73 L225.73,139.73 C227.069085,139.780283 228.367661,140.202753 229.48,140.95 L229.95,139.32 L219.64,125.96 Z M191.28,150.72 C190.357826,150.72 189.526455,150.164496 189.173555,149.312518 C188.820654,148.460541 189.015721,147.479872 189.667797,146.827797 C190.319872,146.175721 191.300541,145.980654 192.152518,146.333555 C193.004496,146.686455 193.56,147.517826 193.56,148.44 C193.562673,149.048161 193.322265,149.632186 192.892225,150.062225 C192.462186,150.492265 191.878161,150.732673 191.27,150.73 L191.28,150.72 Z" fill="#2A2B79" fill-rule="nonzero"/><path d="M275.22,116.19 L263.56,116.19 C260.740107,116.195502 258.455502,118.480107 258.45,121.3 L258.45,160.62 C258.455502,163.439893 260.740107,165.724498 263.56,165.73 L275.16,165.73 C277.979893,165.724498 280.264498,163.439893 280.27,160.62 L280.27,121.3 C280.264799,118.50331 278.016434,116.228231 275.22,116.19 Z" fill="#FFFFFF" fill-rule="nonzero"/><path d="M274.44,158.84 C274.03,157.12 272.66,156.08 273.37,155.52 C273.2,154.95 272.85,154.24 272.86,154.24 C271.301818,153.260559 269.873812,152.087915 268.61,150.75 C268.194451,150.410176 267.818724,150.024384 267.49,149.6 C266.119309,147.944794 264.913584,146.15965 263.89,144.27 L262.89,144.13 C262.43,142.24 260.89,140.66 260.89,138.76 C260.936683,137.891695 261.087771,137.032173 261.34,136.2 C261.535115,135.890303 261.778137,135.613528 262.06,135.38 L262.06,134.87 C259.84,134.94 260.48,134.71 260.06,133.87 C259.873198,133.509424 259.873198,133.080576 260.06,132.72 C260.507688,131.339176 261.076569,130.000633 261.76,128.72 C261.88,128.29 262.31,127.25 262.31,127.25 C263.97,123.88 264.58,124.12 266.54,123.94 L266.64,123.8 C268.64,123.72 268.29,123.56 268.56,121.68 C268.22,121.81 268.22,121.12 268.22,121.12 C268.06,120.04 268.51,120.24 268.73,120.22 C268.78,118.45 268.95,117.89 270.24,117.4 L263.61,117.4 C262.566885,117.397336 261.565725,117.810532 260.828129,118.548129 C260.090532,119.285725 259.677336,120.286885 259.68,121.33 L259.68,160.62 C259.68,162.790479 261.439521,164.55 263.61,164.55 L275.22,164.55 C273.89,163.83 274.68,162.46 274.72,159.87 C274.39592,159.646537 274.296114,159.212595 274.49,158.87" fill="#066CB4" fill-rule="nonzero"/><path d="M272.31 125.42C272.66 125.63 272.84 125.8 273.2 126.03 274.14 126.63 275.3 127.69 275.2 131.34 275.47 132.14 275.58 133.7 275.83 134.2 276.303756 134.98084 276.641869 135.836265 276.83 136.73 276.861634 137.257048 276.972895 137.776267 277.16 138.27 278.16 138.49 277.86 138.59 278 138.76 278.345659 138.857908 278.617268 139.125744 278.72 139.47 278.909516 139.7214 279.064245 139.997222 279.18 140.29L279.18 121.29C279.182664 120.246885 278.769468 119.245725 278.031871 118.508129 277.294275 117.770532 276.293115 117.357336 275.25 117.36L271.42 117.36C271.902534 117.482833 272.314183 117.796986 272.56 118.23 273.04 118.23 273.61 119.35 272.72 120.95 273.11 121.22 272.81 121.62 272.53 122.08 272.470959 122.284065 272.299676 122.435883 272.09 122.47 271.896992 123.055021 271.522093 123.563062 271.02 123.92 270.90659 124.093077 270.90659 124.316923 271.02 124.49 271.484445 124.675402 271.919096 124.928106 272.31 125.24L272.31 125.42zM275.76 164.5C277.48 163.5 276.41 161.5 276.08 160.32 276.077089 160.245392 276.098113 160.171808 276.14 160.11 276.166598 159.927127 276.131405 159.740608 276.04 159.58 275.841281 159.070416 275.716679 158.534964 275.67 157.99 275.666829 157.168619 275.777892 156.350787 276 155.56 275.876179 154.888718 275.556006 154.269254 275.08 153.78 274.94 153.62 274.5 149.93 274.08 149 273.55 147.71 273.39 147.92 272.75 146.38 272.26 145.3 272.65 143.7 271.54 140 271.629705 139.930562 271.71334 139.853618 271.79 139.77 271.79 139.77 270.91 136.56 270.62 135.68 270.55375 135.240046 270.243702 134.875739 269.82 134.74 269.811742 134.590114 269.811742 134.439886 269.82 134.29 269.82 134.15 270.88 131.47 270.98 131.39 271.430318 131.00376 271.940264 130.693064 272.49 130.47 272.61 131.12 273.18 134.47 273.43 134.99 273.68 135.51 274.53 137.16 274.93 138.17 273.324146 138.567734 272.216098 140.035535 272.273559 141.688912 272.33102 143.34229 273.538296 144.729624 275.167888 145.014914 276.797479 145.300203 278.404264 144.405522 279.02 142.87L279.02 160.62C279.033088 162.552257 277.629304 164.202767 275.72 164.5L275.72 164.5 275.76 164.5z" fill="#EA1D4D" fill-rule="nonzero"/><path fill="#FFFFFF" fill-rule="nonzero" d="M261.73 155.95L263.06 155.95 263.99 159.18 263.99 159.41 263.99 159.41 263.99 155.95 265.22 155.95 265.22 161.83 263.9 161.83 262.9 158.41 262.9 158.2 262.9 158.2 262.9 161.83 261.72 161.83 261.72 155.95M265.68 155.95L267.6 155.95C268.264996 155.960186 268.841527 156.412705 269.009406 157.056242 269.177285 157.699779 268.895277 158.376264 268.32 158.71L268.32 158.71C268.632433 158.766529 268.907136 158.950794 269.077966 159.218426 269.248795 159.486059 269.300271 159.812809 269.22 160.12 269.305603 160.570233 269.176323 161.03463 268.870388 161.375865 268.564453 161.7171 268.116872 161.896125 267.66 161.86L265.66 161.86 265.66 155.98 265.68 155.95zM267.08 160.83L267.48 160.83C267.93 160.83 267.98 160.61 267.98 160.03 267.98 159.63 267.93 159.24 267.51 159.24L267.08 159.24 267.08 160.84 267.08 160.83zM267.08 158.28L267.45 158.28C267.88 158.28 267.92 157.96 267.92 157.6 267.92 157.24 267.83 156.96 267.5 156.96L267.08 156.96 267.08 158.29 267.08 158.28zM270.34 155.95L272.14 155.95 273.24 161.83 271.82 161.83 271.69 160.54 270.69 160.54 270.55 161.83 269.22 161.83 270.34 155.95zM271.22 156.95L270.88 159.59 271.55 159.59 271.22 156.97 271.22 156.83 271.22 156.83 271.22 156.97 271.22 156.95zM297.34 144.42C297.34 140.16 299.34 138.53 299.75 134.49 299.19 138.03 296.84 140.93 296.84 144.42 296.831315 145.662289 297.006547 146.899022 297.36 148.09 298.83 153 303.22 155.73 307.47 156.8 301.65359 155.4851 297.477622 150.381597 297.34 144.42L297.34 144.42zM334.77 144.42C334.731045 142.488623 334.295356 140.585886 333.49 138.83 332.69 136.9 331.82 135.16 331.82 133.01 331.82 138.2 334.3 139.67 334.3 144.42 334.167969 150.366782 330.016593 155.465398 324.22 156.8 330.08 155.31 334.77 150.99 334.77 144.42zM332.39 156.78C331.506344 156.78 330.79 157.496344 330.79 158.38 330.79 159.263656 331.506344 159.98 332.39 159.98 333.273656 159.98 333.99 159.263656 333.99 158.38 333.99 157.496344 333.273656 156.78 332.39 156.78L332.39 156.78zM332.39 159.64C331.694121 159.64 331.13 159.075879 331.13 158.38 331.13 157.684121 331.694121 157.12 332.39 157.12 333.085879 157.12 333.65 157.684121 333.65 158.38 333.65 159.075879 333.085879 159.64 332.39 159.64L332.39 159.64z"/><path d="M333.05,158.02 C333.05,157.721766 332.808234,157.48 332.51,157.48 L331.74,157.48 L331.74,159.31 L332.08,159.31 L332.08,158.57 L332.33,158.57 L332.68,159.31 L333.06,159.31 L332.7,158.54 C332.915623,158.459044 333.056166,158.250237 333.05,158.02 L333.05,158.02 Z M332.51,158.22 L332.08,158.22 L332.08,157.82 L332.51,157.82 C332.59058,157.803918 332.672798,157.838758 332.71729,157.90784 C332.761781,157.976922 332.759492,158.066188 332.711519,158.132899 C332.663545,158.19961 332.57965,158.230191 332.5,158.21 L332.51,158.22 Z" fill="#FFFFFF" fill-rule="nonzero"/><path d="M332.61 123.74C331.206321 123.281716 330.120452 122.158403 329.71 120.74L328.35 117.03 327.72 119.38C329 125.15 333.72 125.56 333.72 125.56L335.65 124.66 332.61 123.74zM310.22 144.75L307.74 140.94 304.98 143.01C305.532285 143.01 305.98 143.457715 305.98 144.01L305.98 151.18 307.93 149.72 307.93 144.65 310.15 148.05 312.21 146.51 312.21 137.62 310.22 139.12 310.22 144.79 310.22 144.75zM318.1 136.45L315.9 138.1 315.9 134.8 312.9 137.03C313.452285 137.03 313.9 137.477715 313.9 138.03L313.9 145.2 315.9 143.7 315.9 140.43 318.1 138.78 318.1 142.12 320 140.69 320 131.72 318.1 133.15 318.1 136.45 318.1 136.45zM323.66 135.62L323.66 128.97 320.66 131.2C321.212285 131.2 321.66 131.647715 321.66 132.2L321.66 139.36 327.18 135.21C327.103404 134.45193 327.103404 133.68807 327.18 132.93L323.66 135.62z" fill="#D1D3D3" fill-rule="nonzero"/><path d="M298.43,133.02 C298.43,138.09 295.94,139.1 295.94,144.42 C295.935561,145.966198 296.195993,147.501733 296.71,148.96 C296.87056,148.632029 297.091013,148.336962 297.36,148.09 C297.006547,146.899022 296.831315,145.662289 296.84,144.42 C296.84,140.94 299.19,138.03 299.75,134.49 C299.802179,133.998377 299.828881,133.504383 299.83,133.01 C299.766143,130.408388 299.105849,127.856164 297.9,125.55 L295.97,124.65 L297.28,127.65 C298.029129,129.341679 298.420647,131.169896 298.43,133.02 L298.43,133.02 Z" fill="url(#a)" fill-rule="nonzero"/><path d="M331.82,133.01 C331.82,135.15 332.69,136.9 333.49,138.83 L334.49,138.83 C333.646658,137.009585 333.213126,135.026262 333.22,133.02 C333.227267,131.155731 333.622304,129.313363 334.38,127.61 L335.69,124.61 L333.76,125.51 C332.544739,127.827377 331.880836,130.394012 331.82,133.01 L331.82,133.01 Z" fill="url(#b)" fill-rule="nonzero"/><path d="M314.31,158.36 C312.73,157.79 310.58,157.59 307.47,156.81 C303.22,155.73 298.83,153 297.36,148.1 C297.091013,148.346962 296.87056,148.642029 296.71,148.97 C298.459773,153.563313 302.348953,157.007909 307.12,158.19 C310.02,158.92 311.38,159 313.54,159.6 L315.82,162.06 L315.82,159.99 C315.82,159.99 314.51,158.55 314.31,158.36 Z" fill="url(#c)" fill-rule="nonzero"/><path d="M307.82,155.43 C311.28,156.31 313.54,156.43 315.06,157.14 C315.06,157.14 315.61,157.65 315.82,157.88 C316.03,157.65 316.58,157.14 316.58,157.14 C318.1,156.41 320.36,156.31 323.82,155.43 C328.19,154.32 332.9,150.43 332.9,144.43 C332.9,140.1 330.42,138.51 330.42,133.02 C330.430013,130.760263 330.906635,128.526948 331.82,126.46 C329.545687,125.773861 327.766139,123.994313 327.08,121.72 C325.659113,122.950896 323.85884,123.656886 321.98,123.72 C319.673257,123.656554 317.474591,122.728545 315.82,121.12 C314.162341,122.730022 311.960015,123.658069 309.65,123.72 C307.77116,123.656886 305.970887,122.950896 304.55,121.72 C303.863861,123.994313 302.084313,125.773861 299.81,126.46 C300.72364,128.526859 301.200275,130.760233 301.21,133.02 C301.21,138.51 298.73,140.1 298.73,144.43 C298.74,150.47 303.45,154.32 307.82,155.43 Z M331.32,144.43 C331.32,149.56 327.23,152.93 323.43,153.9 C320.69,154.6 317.34,154.96 316.32,155.53 C316.138555,155.670147 315.968061,155.823927 315.81,155.99 C315.651753,155.824118 315.481273,155.670353 315.3,155.53 C314.3,154.95 310.93,154.59 308.19,153.9 L307.88,153.81 L329.45,137.61 C330.22,140.18 331.32,141.87 331.32,144.42 L331.32,144.43 Z M329.79,127.33 C329.173013,129.164141 328.852323,131.084904 328.84,133.02 C328.836375,133.896902 328.899894,134.772796 329.03,135.64 L305.89,153.02 C302.655485,151.491939 300.520319,148.312232 300.33,144.74 L326.92,124.74 C327.6712,125.80424 328.652051,126.685981 329.79,127.32 L329.79,127.33 Z M302.79,133.02 C302.777336,131.084934 302.456655,129.164224 301.84,127.33 C303.234145,126.582471 304.401584,125.473749 305.22,124.12 C306.584036,124.905265 308.126221,125.328677 309.7,125.35 C311.929239,125.314342 314.08963,124.572036 315.87,123.23 C317.646965,124.571269 319.803953,125.31361 322.03,125.35 C322.458606,125.349686 322.886546,125.316253 323.31,125.25 L300.65,142.25 C301.22,139.66 302.81,137.54 302.81,133.01 L302.79,133.02 Z" fill="url(#d)" fill-rule="nonzero"/><path d="M309.65,122.3 C313.37,122.3 315.82,119.14 315.82,119.14 L315.82,117.14 L313.88,119.12 C312.749565,120.229068 311.242904,120.871719 309.66,120.92 C308.42174,120.871861 307.239677,120.390542 306.32,119.56 L303.32,117.06 L303.95,119.41 C303.95,119.41 306.77,122.3 309.65,122.3 Z" fill="url(#e)" fill-rule="nonzero"/><path d="M334.77,144.42 C334.77,150.99 330.08,155.31 324.18,156.8 C321.07,157.59 318.92,157.8 317.35,158.35 C317.15,158.54 315.83,159.96 315.83,159.96 L315.83,162.03 L318.11,159.57 C320.27,158.96 321.63,158.89 324.53,158.16 C330.4,156.65 335.71,151.53 335.71,144.41 C335.723586,142.471605 335.324763,140.552486 334.54,138.78 L333.54,138.78 C334.334844,140.554966 334.753632,142.47526 334.77,144.42 L334.77,144.42 Z" fill="url(#f)" fill-rule="nonzero"/><path d="M321.99,122.3 C324.88,122.3 327.72,119.37 327.72,119.37 L328.35,117.02 L325.35,119.52 C324.430783,120.351274 323.248442,120.832706 322.01,120.88 C320.427096,120.831719 318.920435,120.189068 317.79,119.08 L315.82,117.12 L315.82,119.12 C315.82,119.12 318.22,122.3 321.99,122.3 Z" fill="url(#g)" fill-rule="nonzero"/><path d="M303.93,119.37 L303.3,117.02 L301.94,120.73 C301.531115,122.14931 300.444639,123.273251 299.04,123.73 L295.97,124.64 L297.9,125.54 C297.9,125.54 302.64,125.12 303.93,119.37 Z" fill="url(#h)" fill-rule="nonzero"/><path d="M300.61 142.22L323.27 125.22C322.846546 125.286253 322.418606 125.319686 321.99 125.32 319.763953 125.28361 317.606965 124.541269 315.83 123.2 314.04963 124.542036 311.889239 125.284342 309.66 125.32 308.102453 125.301057 306.575034 124.888241 305.22 124.12 304.423672 125.480573 303.277231 126.602842 301.9 127.37 302.516655 129.204224 302.837336 131.124934 302.85 133.06 302.81 137.54 301.22 139.66 300.61 142.22zM307.9 153.81L308.21 153.9C310.95 154.6 314.3 154.96 315.32 155.53 315.501273 155.670353 315.671753 155.824118 315.83 155.99 315.988061 155.823927 316.158555 155.670147 316.34 155.53 317.34 154.95 320.71 154.59 323.45 153.9 327.25 152.9 331.34 149.56 331.34 144.43 331.34 141.87 330.22 140.19 329.48 137.62L307.9 153.81z" fill="#231F20" fill-rule="nonzero"/><path d="M297.82,133.02 C297.82,137.89 295.33,139.02 295.33,144.42 C295.33,152.22 301.33,157.33 306.97,158.77 C309.8,159.46 310.66,159.51 313.22,160.14 L315.83,162.95 L318.44,160.14 C321,159.51 321.85,159.46 324.69,158.77 C330.3,157.33 336.33,152.22 336.33,144.42 C336.33,139.01 333.84,137.9 333.84,133.02 C333.845453,131.241342 334.223579,129.483566 334.95,127.86 L336.54,124.25 L332.8,123.15 C331.582816,122.74102 330.646805,121.756336 330.3,120.52 L328.65,115.99 L324.96,119.05 C324.151442,119.79204 323.10649,120.22419 322.01,120.27 C320.58882,120.221658 319.237032,119.643849 318.22,118.65 L315.84,116.3 L313.46,118.65 C312.442968,119.643849 311.09118,120.221658 309.67,120.27 C308.57351,120.22419 307.528558,119.79204 306.72,119.05 L303.03,115.99 L301.38,120.52 C301.03517,121.754029 300.103341,122.73825 298.89,123.15 L295.15,124.25 L296.74,127.86 C297.454978,129.48616 297.822815,131.243604 297.82,133.02 Z M299.04,123.73 C300.444639,123.273251 301.531115,122.14931 301.94,120.73 L303.3,117.02 L306.3,119.52 C307.219677,120.350542 308.40174,120.831861 309.64,120.88 C311.222904,120.831719 312.729565,120.189068 313.86,119.08 L315.82,117.12 L317.76,119.05 C318.890435,120.159068 320.397096,120.801719 321.98,120.85 C323.218442,120.802706 324.400783,120.321274 325.32,119.49 L328.32,116.99 L329.68,120.7 C330.090452,122.118403 331.176321,123.241716 332.58,123.7 L335.65,124.61 L334.34,127.61 C333.596052,129.316315 333.214662,131.158565 333.22,133.02 C333.231487,135.015757 333.678564,136.984942 334.53,138.79 C335.314763,140.562486 335.713586,142.481605 335.7,144.42 C335.7,151.55 330.4,156.66 324.52,158.17 C321.62,158.9 320.27,158.98 318.1,159.58 L315.82,162.04 L313.54,159.58 C311.37,158.97 310.02,158.9 307.12,158.17 C302.348953,156.987909 298.459773,153.543313 296.71,148.95 C296.195993,147.491733 295.935561,145.956198 295.94,144.41 C295.94,139.09 298.43,138.08 298.43,133.01 C298.423025,131.1457 298.027976,129.303272 297.27,127.6 L295.96,124.6 L299.04,123.73 Z" fill="#231F20" fill-rule="nonzero"/><path d="M305.89,153.01 L329.03,135.63 C328.899894,134.762796 328.836375,133.886902 328.84,133.01 C328.852323,131.074904 329.173013,129.154141 329.79,127.32 C328.654145,126.691724 327.673465,125.816971 326.92,124.76 L300.33,144.76 C300.531057,148.321236 302.664587,151.486997 305.89,153.01 Z M323.66,129.01 L323.66,135.66 L327.18,133.02 C327.103404,133.77807 327.103404,134.54193 327.18,135.3 L321.66,139.45 L321.66,132.29 C321.66,131.737715 321.212285,131.29 320.66,131.29 L323.66,129.01 Z M315.9,134.84 L315.9,138.12 L318.1,136.47 L318.1,133.12 L320,131.69 L320,140.62 L318.1,142.05 L318.1,138.78 L315.9,140.43 L315.9,143.7 L313.9,145.2 L313.9,138.03 C313.9,137.477715 313.452285,137.03 312.9,137.03 L315.9,134.84 Z M307.72,140.98 L310.2,144.79 L310.2,139.12 L312.15,137.66 L312.15,146.59 L310.1,148.12 L307.88,144.72 L307.88,149.79 L305.93,151.25 L305.93,144.08 C305.93,143.527715 305.482285,143.08 304.93,143.08 L307.72,140.98 Z" fill="#231F20" fill-rule="nonzero"/><path d="M299.75,134.49 C299.34,138.49 297.34,140.15 297.34,144.42 C297.477622,150.381597 301.65359,155.4851 307.47,156.8 C310.58,157.59 312.73,157.8 314.31,158.35 C314.51,158.54 315.83,159.96 315.83,159.96 C315.83,159.96 317.14,158.53 317.35,158.35 C318.93,157.78 321.07,157.58 324.18,156.8 C329.99641,155.4851 334.172378,150.381597 334.31,144.42 C334.31,139.67 331.83,138.2 331.83,133.01 C331.893857,130.408388 332.554151,127.856164 333.76,125.55 C333.76,125.55 329.01,125.14 327.76,119.37 C327.76,119.37 324.91,122.3 322.03,122.3 C318.31,122.3 315.87,119.14 315.87,119.14 C315.87,119.14 313.42,122.3 309.7,122.3 C306.82,122.3 303.97,119.37 303.97,119.37 C302.68,125.14 297.97,125.55 297.97,125.55 C299.175849,127.856164 299.836143,130.408388 299.9,133.01 C299.875657,133.505598 299.82559,133.999596 299.75,134.49 Z M299.82,126.49 C302.094313,125.803861 303.873861,124.024313 304.56,121.75 C305.980887,122.980896 307.78116,123.686886 309.66,123.75 C311.970015,123.688069 314.172341,122.760022 315.83,121.15 C317.484591,122.758545 319.683257,123.686554 321.99,123.75 C323.86884,123.686886 325.669113,122.980896 327.09,121.75 C327.776139,124.024313 329.555687,125.803861 331.83,126.49 C330.916635,128.556948 330.440013,130.790263 330.43,133.05 C330.43,138.54 332.91,140.13 332.91,144.46 C332.91,150.46 328.2,154.36 323.83,155.46 C320.37,156.34 318.11,156.46 316.59,157.17 C316.59,157.17 316.04,157.68 315.83,157.91 C315.62,157.68 315.07,157.17 315.07,157.17 C313.55,156.44 311.29,156.34 307.83,155.46 C303.46,154.35 298.75,150.46 298.75,144.46 C298.75,140.13 301.23,138.54 301.23,133.05 C301.221266,130.77941 300.74113,128.535373 299.82,126.46 L299.82,126.49 Z" fill="#231F20" fill-rule="nonzero"/><path d="M8.32 121.47C9.39510479 121.445356 10.462829 121.653443 11.45 122.08 12.297779 122.458791 13.054716 123.01456 13.67 123.71 14.2648159 124.393593 14.7170058 125.189175 15 126.05 15.2938591 126.933533 15.4424555 127.858883 15.44 128.79 15.4431502 129.717902 15.2945218 130.640074 15 131.52 14.7195927 132.370831 14.2706633 133.156458 13.68 133.83 13.0619757 134.519279 12.3009236 135.065325 11.45 135.43 10.4470374 135.849876 9.36703247 136.054293 8.28 136.03 7.19192095 136.055083 6.11106666 135.847096 5.11 135.42 4.25766686 135.048657 3.4966311 134.495797 2.88 133.8 2.29175732 133.124734 1.84312103 132.339621 1.56 131.49 1.26718105 130.626885 1.11852473 129.721432 1.12 128.81 1.1028745 127.785283 1.28280296 126.76682 1.65 125.81 1.98226035 124.942643 2.48944427 124.152934 3.14 123.49 3.7907383 122.836 4.56602406 122.319143 5.42 121.97 6.34387868 121.612432 7.32972322 121.442459 8.32 121.47zM3.32 128.83C3.33334185 129.458412 3.43776223 130.081566 3.63 130.68 3.81913105 131.279537 4.11747864 131.838938 4.51 132.33 4.91992926 132.83674 5.43969228 133.24366 6.03 133.52 6.72975635 133.836653 7.49220615 133.990511 8.26 133.97 9.02892129 133.989664 9.79301584 133.842985 10.5 133.54 11.092023 133.279769 11.618238 132.890233 12.04 132.4 12.4434417 131.919971 12.7430702 131.361572 12.92 130.76 13.107672 130.133922 13.2020196 129.483598 13.2 128.83 13.1989359 128.183186 13.1046327 127.539903 12.92 126.92 12.7407977 126.301184 12.4418061 125.723586 12.04 125.22 11.6242949 124.707406 11.1022766 124.291156 10.51 124 9.82047968 123.669865 9.06443923 123.502236 8.3 123.51 7.56355289 123.495301 6.8318846 123.631425 6.15 123.91 5.5538529 124.159257 5.02088546 124.538484 4.59 125.02 4.14187315 125.506997 3.80116748 126.08279 3.59 126.71 3.39540958 127.399065 3.31103375 128.114572 3.34 128.83L3.32 128.83zM18.6 135.73L18.6 121.73 28.5 121.73 28.5 123.91 20.84 123.91 20.84 128.17 28.12 128.17 28.12 130.25 20.84 130.25 20.84 135.71 18.6 135.71M31.62 135.73L31.62 121.73 41.52 121.73 41.52 123.91 33.86 123.91 33.86 128.17 41.14 128.17 41.14 130.25 33.86 130.25 33.86 135.71 31.62 135.71M44.64 135.73L44.64 121.73 46.86 121.73 46.86 135.73M62.66 133.93C61.9772716 134.625703 61.1515681 135.164798 60.24 135.51 59.3314347 135.847317 58.3691379 136.016735 57.4 136.01 56.273872 136.036704 55.1542048 135.832509 54.11 135.41 52.3832446 134.698576 51.0511117 133.271552 50.46 131.5 50.1666615 130.640463 50.0179757 129.738211 50.02 128.83 50.0197236 127.911313 50.171786 126.998939 50.47 126.13 50.7617432 125.263657 51.2241859 124.464583 51.83 123.78 52.4696176 123.069093 53.2538028 122.503116 54.13 122.12 55.1624917 121.678854 56.277514 121.464033 57.4 121.49 58.3381954 121.486383 59.2683619 121.662911 60.14 122.01 61.0340403 122.375643 61.843939 122.920113 62.52 123.61L61.02 125.05C60.5360901 124.571411 59.9568695 124.200028 59.32 123.96 57.9440734 123.46082 56.4308637 123.496509 55.08 124.06 54.4642417 124.332149 53.91492 124.734758 53.47 125.24 53.049578 125.727574 52.7331171 126.295843 52.54 126.91 52.3420832 127.523946 52.2408732 128.164942 52.24 128.81 52.2393092 129.448639 52.3405838 130.083293 52.54 130.69 52.7336348 131.291936 53.0503406 131.847023 53.47 132.32 53.9160863 132.812079 54.4614016 133.204025 55.07 133.47 55.8064456 133.781003 56.6008547 133.93102 57.4 133.91 58.0853278 133.907614 58.7639857 133.775276 59.4 133.52 60.0526281 133.269134 60.6453873 132.884181 61.14 132.39L62.66 133.93zM65.44 135.73L65.44 121.73 67.66 121.73 67.66 135.73M81.38 132.79L73.8 132.79 72.48 135.73 70.1 135.73 76.38 121.73 78.82 121.73 85.1 135.73 82.72 135.73 81.38 132.79zM77.6 124.09L74.6 130.75 80.52 130.75 77.6 124.09zM89.78 121.73L89.78 133.65 97.16 133.65 97.16 135.73 87.54 135.73 87.54 121.73M4.22 155.43L4.22 159.73 1.98 159.73 1.98 145.73 8.46 145.73C9.43713483 145.692999 10.4036734 145.943325 11.24 146.45 11.9500039 146.890049 12.5299035 147.51137 12.92 148.25 13.6664931 149.720697 13.6664931 151.459303 12.92 152.93 12.5314861 153.666543 11.9554091 154.287465 11.25 154.73 10.4108008 155.238577 9.44050318 155.488976 8.46 155.45L4.22 155.45 4.22 155.43zM4.22 153.37L8.46 153.37C9.00268587 153.389539 9.53886921 153.246789 10 152.96 10.391792 152.716403 10.7098404 152.370699 10.92 151.96 11.1203788 151.538331 11.2229304 151.076849 11.22 150.61 11.2233888 150.141979 11.117226 149.679657 10.91 149.26 10.6958402 148.852103 10.3786673 148.50735 9.99 148.26 9.53295938 147.972298 8.99966088 147.829388 8.46 147.85L4.22 147.85 4.22 153.45 4.22 153.37zM25 156.79L17.42 156.79 16.1 159.73 13.72 159.73 20 145.73 22.44 145.73 28.72 159.73 26.34 159.73 25 156.79zM21.22 148.12L18.22 154.78 24.22 154.78 21.22 148.12zM43.22 159.73L40.62 159.73 36.36 154.89 33.36 154.89 33.36 159.73 31.12 159.73 31.12 145.73 37.64 145.73C38.3713453 145.715173 39.0984698 145.844289 39.78 146.11 40.3564763 146.334202 40.8806722 146.674589 41.32 147.11 41.7296176 147.531312 42.0494129 148.031417 42.26 148.58 42.471922 149.125185 42.5804394 149.705075 42.58 150.29 42.5798663 150.784183 42.5091523 151.275813 42.37 151.75 42.2320684 152.226462 42.0084102 152.673778 41.71 153.07 41.3904941 153.477931 40.9927093 153.817918 40.54 154.07 39.9961454 154.371234 39.3979304 154.561575 38.78 154.63L42.96 159.29 43.22 159.73zM33.38 147.73L33.38 152.81 37.64 152.81C38.0456563 152.817967 38.4492354 152.750139 38.83 152.61 39.4535683 152.382559 39.9418911 151.886893 40.16 151.26 40.2678187 150.954956 40.3219532 150.633532 40.32 150.31 40.320024 149.989889 40.2659284 149.672077 40.16 149.37 39.9457763 148.733865 39.4686872 148.220357 38.85 147.96 38.474139 147.799789 38.0684908 147.721387 37.66 147.73L33.38 147.73 33.38 147.73zM49.02 147.75L44.42 147.75 44.42 145.75 55.86 145.75 55.86 147.75 51.28 147.75 51.28 159.75 49.02 159.75M68.12 155.69L68.12 145.69 70.36 145.69 70.36 159.69 68.66 159.69 60.72 149.81 60.72 159.69 58.46 159.69 58.46 145.69 60.22 145.69M84.72 159.73L74.38 159.73 74.38 145.73 84.66 145.73 84.66 147.91 76.66 147.91 76.66 151.69 84.38 151.69 84.38 153.77 76.62 153.77 76.62 157.53 84.72 157.53 84.72 159.73M100.22 159.73L97.6 159.73 93.34 154.89 90.34 154.89 90.34 159.73 88.1 159.73 88.1 145.73 94.62 145.73C95.3513453 145.715173 96.0784698 145.844289 96.76 146.11 97.3363459 146.334457 97.8604928 146.674812 98.3 147.11 98.7096176 147.531312 99.0294129 148.031417 99.24 148.58 99.4516971 149.125249 99.5602065 149.705096 99.56 150.29 99.5601408 150.784202 99.4894212 151.275872 99.35 151.75 99.2137761 152.227127 98.9899676 152.674744 98.69 153.07 98.3710843 153.478496 97.9731755 153.818588 97.52 154.07 96.9762511 154.371479 96.3779858 154.561836 95.76 154.63L99.94 159.29 100.22 159.73zM90.38 147.73L90.38 152.81 94.64 152.81C95.0456391 152.817733 95.4491752 152.749912 95.83 152.61 96.4527819 152.381337 96.9406574 151.886125 97.16 151.26 97.2670456 150.954756 97.3211573 150.633468 97.32 150.31 97.3194543 149.989937 97.2653748 149.67222 97.16 149.37 96.9457763 148.733865 96.4686872 148.220357 95.85 147.96 95.4742292 147.799495 95.0685169 147.72108 94.66 147.73L90.38 147.73 90.38 147.73z" fill="#09203F" fill-rule="nonzero"/><path fill="#333333" fill-rule="nonzero" d="M412.38 132.8L409.18 135.25 407.63 140.76 409.42 143.3 414.62 143.3 413.56 147.12 409.27 147.12 409.77 145.31 406.37 145.31 405.64 147.97 407.49 150.48 413.51 150.48 416.73 148 418.26 142.43 416.45 139.91 411.26 139.91 412.31 136.15 416.58 136.15 416.07 137.98 419.49 137.98 420.26 135.25 418.48 132.8M425.4 132.8L422.18 135.25 418.65 147.98 420.5 150.48 426.53 150.48 429.75 147.98 430.75 144.38 427.34 144.38 426.58 147.12 422.3 147.12 425.36 136.13 429.63 136.13 428.86 138.9 432.26 138.9 433.29 135.25 431.53 132.8M451.41 136.12L455.68 136.12 454.09 141.84 449.83 141.84 451.41 136.12zM448.94 132.8L444.03 150.48 447.43 150.48 448.9 145.18 451.67 145.18 452.3 150.48 455.63 150.48 454.9 144.48 457.3 142.54 459.3 135.27 457.51 132.83 448.92 132.83 448.94 132.8zM391.48 132.8L388.72 142.78 387.08 132.8 383.7 132.8 378.79 150.48 382.2 150.48 385.01 140.46 386.68 150.48 390 150.48 394.89 132.8M399.3 136.12L403.59 136.12 402.01 141.83 397.72 141.83 399.3 136.12zM399.3 132.8L396.12 135.23 391.88 150.48 395.28 150.48 396.75 145.19 401.04 145.19 399.57 150.48 402.96 150.48 407.22 135.25 405.43 132.81 399.31 132.81 399.3 132.8zM438.36 136.12L442.65 136.12 441.07 141.83 436.78 141.83 438.36 136.12zM438.36 132.8L435.22 135.25 431 150.48 434.4 150.48 435.87 145.19 440.16 145.19 438.69 150.48 442.1 150.48 446.32 135.23 444.53 132.8 438.41 132.8 438.36 132.8z"/><path fill="#005CB9" fill-rule="nonzero" d="M375.06 132.81L370.14 150.48 376.94 150.48 381.83 132.81"/><path fill="#EB0029" fill-rule="nonzero" d="M365.31 132.81L360.39 150.5 363.67 150.5 368.57 132.81M369.91 132.81L365 150.5 368.27 150.5 373.17 132.81"/><path fill="#F7CE3C" fill-rule="nonzero" d="M358.08 132.81L353.17 150.5 355.2 150.5 360.1 132.81M361.43 132.81L356.51 150.5 358.55 150.5 363.45 132.81"/></g></g><div xmlns="" id="divScriptsUsed" style="display: none"/><script xmlns="" id="globalVarsDetection" src="chrome-extension://cmkdbmfndkfgebldhnkbfhlneefdaaip/js/wrs_env.js"/></svg>