<svg xmlns="http://www.w3.org/2000/svg" width="206" height="174" viewBox="0 0 206 174">
  <path fill="#FFFFFF" d="M205.4,20.5 L184.9,52.3 C184.5,53 183.6,53.3 182.9,52.9 C135.6,29.1 81,72.9 32.9,62.4 C32.5,62.3 32.1,62.1 31.8,61.7 C31.8,61.7 8.5,25.9 0.8,13.9 C-0.2,12.4 1,10.3 3,10.6 C7.2,11.6 25.3,15.6 39.4,16.6 C112.5,20.5 152,-23.3 205,18.2 C205.6,18.8 205.8,19.8 205.4,20.5 Z M145.6,111.8 C146,112 146.4,111.9 146.7,111.5 L171.6,73 C171.9,72.5 171.6,71.9 171.1,71.7 C135.2,59.3 101.6,83.1 50.4,84.4 C49.1,84.4 47.7,86 48.6,87.6 L104,173 C104.8,174.4 106.7,173.5 106.5,172.2 L94.6,118.2 C94.5,117.7 94.8,117.3 95.3,117.1 C99.5,115.5 130.8,104.9 145.6,111.8 Z"/>
</svg>
